# Blender v2.79 (sub 0) OBJ File: 'buzz.blend'
# www.blender.org
mtllib buzzlightyLeftCalf.mtl
o buzzlightyLeftCalf_buzzlighty.002
v 0.069078 0.101949 -0.012738
v 0.069117 0.093572 -0.032547
v 0.098114 0.065298 -0.064757
v 0.026054 0.069384 0.031799
v 0.026850 0.197122 -0.013824
v 0.020045 0.050285 -0.024192
v 0.041387 0.187221 0.042381
v 0.026059 0.217515 0.019653
v 0.066389 0.178435 -0.047234
v 0.045882 0.181246 -0.041716
v 0.065934 0.189438 0.013484
v 0.086589 0.182703 -0.041731
v 0.026850 0.197122 -0.013824
v 0.104192 0.199889 -0.013853
v 0.026059 0.217515 0.019653
v 0.099456 0.225344 0.027646
v 0.038710 0.245556 0.045101
v 0.088162 0.247325 0.045082
v 0.062792 0.261117 0.055767
v 0.091211 0.188716 0.042366
v 0.066599 0.174725 0.049367
v 0.113424 0.074088 0.036511
v 0.069993 0.078628 0.052330
v 0.041387 0.187221 0.042381
v 0.026054 0.069384 0.031799
v 0.099456 0.225344 0.027646
v 0.091211 0.188716 0.042366
v 0.104192 0.199889 -0.013853
v 0.113424 0.074088 0.036511
v 0.121950 0.054362 -0.024238
v 0.044234 0.215085 0.050485
v 0.026059 0.217515 0.019653
v 0.041387 0.187221 0.042381
v 0.064788 0.215933 0.061233
v 0.038710 0.245556 0.045101
v 0.066599 0.174725 0.049367
v 0.062792 0.261117 0.055767
v 0.091211 0.188716 0.042366
v 0.088162 0.247325 0.045082
v 0.085344 0.216556 0.050469
v 0.099456 0.225344 0.027646
v 0.026850 0.197122 -0.013824
v 0.045882 0.181246 -0.041716
v 0.020045 0.050285 -0.024192
v 0.033190 0.071435 -0.078140
v 0.045882 0.181246 -0.041716
v 0.066389 0.178435 -0.047234
v 0.033190 0.071435 -0.078140
v 0.069832 0.081068 -0.098422
v 0.107668 0.074378 -0.078175
v 0.086589 0.182703 -0.041731
v 0.107668 0.074378 -0.078175
v 0.086589 0.182703 -0.041731
v 0.121950 0.054362 -0.024238
v 0.104192 0.199889 -0.013853
v 0.069993 0.078628 0.052330
v 0.069389 0.067697 0.040097
v 0.113424 0.074088 0.036511
v 0.026054 0.069384 0.031799
v 0.103569 0.065166 0.022624
v 0.032993 0.059693 0.020556
v 0.121950 0.054362 -0.024238
v 0.020045 0.050285 -0.024192
v 0.117810 0.045117 -0.025086
v 0.024606 0.043177 -0.024669
v 0.098114 0.065298 -0.064757
v 0.039991 0.060669 -0.067631
v 0.107668 0.074378 -0.078175
v 0.033190 0.071435 -0.078140
v 0.069227 0.070400 -0.087343
v 0.069832 0.081068 -0.098422
v 0.098114 0.065298 -0.064757
v 0.117810 0.045117 -0.025086
v 0.069077 0.101949 -0.012738
v 0.103569 0.065166 0.022624
v 0.039991 0.060669 -0.067631
v 0.069117 0.093572 -0.032547
v 0.069227 0.070400 -0.087343
v 0.069389 0.067697 0.040097
v 0.024606 0.043177 -0.024669
v 0.032993 0.059693 0.020556
v 0.038349 0.220472 0.019635
v 0.026767 0.215200 -0.008037
v 0.039415 0.193671 0.009907
v 0.037574 0.242485 0.001738
v 0.039706 0.188884 -0.017718
v 0.037866 0.237698 -0.025888
v 0.038932 0.210897 -0.035615
v 0.062664 0.255967 0.006354
v 0.088743 0.244573 0.001940
v 0.063091 0.248958 -0.034093
v 0.037574 0.242485 0.001738
v 0.089035 0.239785 -0.025685
v 0.063798 0.223738 0.032557
v 0.064651 0.209719 -0.048335
v 0.037866 0.237698 -0.025888
v 0.038349 0.220472 0.019635
v 0.089517 0.222559 0.019838
v 0.090101 0.212984 -0.035413
v 0.038932 0.210897 -0.035615
v 0.090875 0.190971 -0.017515
v 0.039706 0.188884 -0.017718
v 0.065785 0.177489 -0.022131
v 0.065358 0.184499 0.018315
v 0.090583 0.195759 0.010110
v 0.039415 0.193671 0.009907
v 0.063798 0.223738 0.032557
v 0.089517 0.222559 0.019838
v 0.038349 0.220472 0.019635
v 0.089517 0.222559 0.019838
v 0.101683 0.218256 -0.007741
v 0.088743 0.244573 0.001940
v 0.090583 0.195759 0.010110
v 0.089035 0.239785 -0.025685
v 0.090875 0.190971 -0.017515
v 0.090101 0.212984 -0.035413
vt 0.400813 0.366847
vt 0.400581 0.376772
vt 0.374864 0.393670
vt 0.485583 0.115220
vt 0.563314 0.306248
vt 0.564404 0.115220
vt 0.488557 0.272005
vt 0.501641 0.327445
vt 0.162367 0.860346
vt 0.192157 0.852987
vt 0.140572 0.812586
vt 0.129706 0.856117
vt 0.212702 0.823052
vt 0.094047 0.828998
vt 0.203605 0.788499
vt 0.088577 0.785701
vt 0.178115 0.756370
vt 0.102249 0.760172
vt 0.140329 0.744711
vt 0.525791 0.271163
vt 0.570274 0.249479
vt 0.495432 0.115220
vt 0.570274 0.115220
vt 0.525791 0.271163
vt 0.495432 0.115220
vt 0.497281 0.327445
vt 0.484197 0.274277
vt 0.558954 0.306248
vt 0.481223 0.115220
vt 0.560044 0.115220
vt 0.534084 0.230050
vt 0.472791 0.234148
vt 0.527845 0.190098
vt 0.570553 0.230369
vt 0.523339 0.262858
vt 0.570543 0.182279
vt 0.570448 0.277475
vt 0.526872 0.190087
vt 0.522275 0.262766
vt 0.533129 0.230012
vt 0.479448 0.240484
vt 0.501405 0.307632
vt 0.550454 0.289533
vt 0.475278 0.115220
vt 0.538389 0.115220
vt 0.534465 0.289770
vt 0.569740 0.284765
vt 0.505381 0.115220
vt 0.569740 0.115220
vt 0.505381 0.115220
vt 0.534465 0.289770
vt 0.538389 0.115220
vt 0.550454 0.289533
vt 0.475278 0.115220
vt 0.501405 0.307632
vt 0.400030 0.330149
vt 0.399815 0.343772
vt 0.366962 0.340087
vt 0.433529 0.342795
vt 0.377441 0.350185
vt 0.423643 0.353938
vt 0.352941 0.373828
vt 0.441954 0.373828
vt 0.367751 0.374257
vt 0.429139 0.374078
vt 0.374864 0.393670
vt 0.425236 0.394970
vt 0.364740 0.401048
vt 0.433253 0.401561
vt 0.399939 0.404228
vt 0.400428 0.417995
vt 0.374864 0.393670
vt 0.367751 0.374257
vt 0.400813 0.366847
vt 0.377441 0.350185
vt 0.425236 0.394970
vt 0.400581 0.376772
vt 0.399939 0.404228
vt 0.399815 0.343772
vt 0.429139 0.374078
vt 0.423643 0.353938
vt 0.450962 0.940219
vt 0.471094 0.904122
vt 0.490743 0.940540
vt 0.429759 0.904122
vt 0.511346 0.904122
vt 0.450001 0.940047
vt 0.491524 0.940922
vt 0.582794 0.677293
vt 0.582794 0.717669
vt 0.568077 0.677293
vt 0.582794 0.717669
vt 0.568077 0.717669
vt 0.597841 0.677293
vt 0.553457 0.677293
vt 0.568077 0.717669
vt 0.597841 0.717669
vt 0.597841 0.717669
vt 0.553457 0.717669
vt 0.553457 0.717669
vt 0.538804 0.717669
vt 0.538804 0.717669
vt 0.538804 0.677293
vt 0.523998 0.677293
vt 0.523998 0.717669
vt 0.523998 0.717669
vt 0.512596 0.677293
vt 0.512596 0.717669
vt 0.512596 0.717669
vt 0.429238 0.904122
vt 0.470572 0.904122
vt 0.450440 0.940176
vt 0.449479 0.940003
vt 0.490221 0.940496
vt 0.491002 0.940878
vt 0.510825 0.904122
vn -0.4228 -0.8349 0.3523
vn -0.9898 0.0534 0.1323
vn -0.9760 -0.0588 0.2098
vn -0.9949 0.0395 0.0933
vn -0.9690 -0.0339 0.2447
vn -0.9256 -0.3327 0.1808
vn -0.0355 0.9833 -0.1785
vn 0.1946 0.9575 -0.2128
vn -0.0342 0.8312 -0.5549
vn -0.2635 0.9408 -0.2133
vn 0.4096 0.8429 -0.3490
vn -0.4773 0.8008 -0.3618
vn 0.3612 0.6581 -0.6606
vn -0.3372 0.6007 -0.7249
vn 0.1199 0.5308 -0.8389
vn -0.1274 0.5125 -0.8492
vn -0.0181 0.5074 -0.8615
vn 0.2718 0.0035 0.9624
vn 0.0146 0.0167 0.9998
vn 0.3313 0.0337 0.9429
vn -0.0308 0.0108 0.9995
vn -0.3121 0.0048 0.9500
vn -0.4185 -0.0271 0.9078
vn 0.9705 -0.1396 0.1964
vn 0.9701 0.0579 0.2355
vn 0.9769 0.0561 0.2061
vn 0.9824 0.1269 0.1368
vn 0.9883 0.1133 0.1019
vn -0.6550 -0.0700 0.7524
vn -0.8619 -0.0631 0.5031
vn -0.5938 -0.1912 0.7816
vn 0.0016 -0.0622 0.9981
vn -0.6235 0.0307 0.7812
vn 0.0099 -0.2763 0.9610
vn -0.0067 0.1198 0.9928
vn 0.5657 -0.1481 0.8112
vn 0.6024 0.0895 0.7932
vn 0.6475 -0.0068 0.7621
vn 0.8472 0.0186 0.5310
vn -0.8019 0.0790 -0.5922
vn -0.8511 0.0989 -0.5156
vn -0.9542 0.1539 -0.2564
vn -0.9708 0.1687 -0.1704
vn -0.2030 0.3293 -0.9221
vn -0.0139 0.3662 -0.9304
vn -0.4846 0.3782 -0.7887
vn -0.0228 0.4646 -0.8852
vn 0.4483 0.4135 -0.7925
vn 0.1782 0.3447 -0.9216
vn 0.9566 0.2412 -0.1638
vn 0.8437 0.1628 -0.5115
vn 0.9416 0.2254 -0.2501
vn 0.7963 0.1392 -0.5886
vn 0.0160 -0.7460 0.6658
vn -0.0023 -0.7691 0.6392
vn 0.2221 -0.8655 0.4489
vn -0.2722 -0.7973 0.5386
vn 0.2892 -0.8737 0.3911
vn -0.4212 -0.7930 0.4402
vn 0.8604 -0.5074 -0.0471
vn -0.8154 -0.5769 -0.0482
vn 0.9110 -0.3981 -0.1074
vn -0.8409 -0.5334 -0.0921
vn 0.2776 -0.8571 -0.4339
vn -0.4194 -0.7465 -0.5165
vn 0.2305 -0.8531 -0.4680
vn -0.2998 -0.7505 -0.5889
vn 0.0110 -0.7465 -0.6653
vn 0.0329 -0.7208 -0.6923
vn -0.6013 -0.7715 0.2079
vn -0.7534 -0.6560 0.0456
vn 0.0960 -0.9894 -0.1087
vn -0.5880 -0.7748 -0.2324
vn 0.6472 -0.7333 0.2085
vn 0.3571 -0.8600 0.3644
vn 0.0702 -0.9187 0.3886
vn 0.0676 -0.8370 -0.5430
vn 0.7908 -0.6096 0.0551
vn 0.6641 -0.7215 -0.1960
vn -0.9241 0.0300 0.3811
vn -0.9992 -0.0388 -0.0039
vn -0.9112 -0.3322 0.2437
vn -0.9369 0.3244 0.1303
vn -0.9080 -0.3957 -0.1378
vn -0.9322 0.2611 -0.2505
vn -0.9160 -0.1004 -0.3884
vn -0.0389 0.9361 0.3495
vn 0.4243 0.8490 0.3150
vn -0.0282 0.7672 -0.6408
vn -0.4936 0.8121 0.3113
vn 0.4319 0.6980 -0.5713
vn -0.0291 0.6300 0.7761
vn 0.0106 -0.1667 -0.9860
vn -0.4821 0.6612 -0.5747
vn -0.4311 0.5600 0.7075
vn 0.3790 0.5918 0.7115
vn 0.4621 -0.1293 -0.8774
vn -0.4433 -0.1655 -0.8810
vn 0.4936 -0.8121 -0.3113
vn -0.4243 -0.8490 -0.3150
vn 0.0389 -0.9361 -0.3495
vn 0.0282 -0.7672 0.6408
vn 0.4821 -0.6612 0.5748
vn -0.4319 -0.6980 0.5712
vn 0.0107 -0.3408 0.9401
vn 0.4124 -0.2963 0.8615
vn -0.3940 -0.3274 0.8588
vn 0.9160 0.1004 0.3884
vn 0.9992 0.0387 0.0039
vn 0.9080 0.3957 0.1378
vn 0.9322 -0.2611 0.2505
vn 0.9112 0.3322 -0.2437
vn 0.9369 -0.3244 -0.1303
vn 0.9241 -0.0300 -0.3811
usemtl Material.004
s 1
f 1/1/1 2/2/1 3/3/1
f 4/4/2 5/5/3 6/6/4
f 4/4/2 7/7/5 5/5/3
f 5/5/3 7/7/5 8/8/6
f 9/9/7 10/10/8 11/11/9
f 9/9/7 11/11/9 12/12/10
f 10/10/8 13/13/11 11/11/9
f 12/12/10 11/11/9 14/14/12
f 13/13/11 15/15/13 11/11/9
f 11/11/9 16/16/14 14/14/12
f 15/15/13 17/17/15 11/11/9
f 11/11/9 18/18/16 16/16/14
f 11/11/9 17/17/15 19/19/17
f 18/18/16 11/11/9 19/19/17
f 20/20/18 21/21/19 22/22/20
f 22/22/20 21/21/19 23/23/21
f 24/24/22 23/23/21 21/21/19
f 25/25/23 23/23/21 24/24/22
f 26/26/24 27/27/25 28/28/26
f 28/28/26 27/27/25 29/29/27
f 29/29/27 30/30/28 28/28/26
f 31/31/29 32/32/30 33/33/31
f 31/31/29 33/33/31 34/34/32
f 32/32/30 31/31/29 35/35/33
f 31/31/29 34/34/32 35/35/33
f 34/34/32 33/33/31 36/36/34
f 35/35/33 34/34/32 37/37/35
f 36/36/34 38/38/36 34/34/32
f 37/37/35 34/34/32 39/39/37
f 34/34/32 38/38/36 40/40/38
f 39/39/37 34/34/32 40/40/38
f 40/40/38 38/38/36 41/41/39
f 40/40/38 41/41/39 39/39/37
f 42/42/40 43/43/41 44/44/42
f 44/44/42 43/43/41 45/45/43
f 46/46/44 47/47/45 48/48/46
f 48/48/46 47/47/45 49/49/47
f 47/47/45 50/50/48 49/49/47
f 51/51/49 50/50/48 47/47/45
f 52/52/50 53/53/51 54/54/52
f 54/54/52 53/53/51 55/55/53
f 56/56/54 57/57/55 58/58/56
f 56/56/54 59/59/57 57/57/55
f 58/58/56 57/57/55 60/60/58
f 57/57/55 59/59/57 61/61/59
f 58/58/56 60/60/58 62/62/60
f 63/63/61 61/61/59 59/59/57
f 62/62/60 60/60/58 64/64/62
f 65/65/63 61/61/59 63/63/61
f 66/66/64 62/62/60 64/64/62
f 65/65/63 63/63/61 67/67/65
f 68/68/66 62/62/60 66/66/64
f 67/67/65 63/63/61 69/69/67
f 70/70/68 68/68/66 66/66/64
f 69/69/67 70/70/68 67/67/65
f 71/71/69 68/68/66 70/70/68
f 71/71/69 70/70/68 69/69/67
f 72/72/70 73/73/71 74/74/72
f 75/75/73 74/74/72 73/73/71
f 76/76/74 77/77/75 74/74/72
f 72/72/70 77/77/75 78/78/76
f 78/78/76 77/77/75 76/76/74
f 79/79/77 74/74/72 75/75/73
f 74/74/72 80/80/78 76/76/74
f 81/81/79 74/74/72 79/79/77
f 74/74/72 81/81/79 80/80/78
f 82/82/80 83/83/81 84/84/82
f 85/85/83 83/83/81 82/82/80
f 84/84/82 83/83/81 86/86/84
f 87/87/85 83/83/81 85/85/83
f 86/86/84 83/83/81 88/88/86
f 88/88/86 83/83/81 87/87/85
f 89/89/87 90/90/88 91/91/89
f 89/89/87 91/91/89 92/92/90
f 91/91/89 90/90/88 93/93/91
f 92/92/90 94/94/92 89/89/87
f 94/94/92 90/90/88 89/89/87
f 91/91/89 93/93/91 95/95/93
f 92/92/90 91/91/89 96/96/94
f 91/91/89 95/95/93 96/96/94
f 97/97/95 94/94/92 92/92/90
f 98/98/96 90/90/88 94/94/92
f 95/95/93 93/93/91 99/99/97
f 96/96/94 95/95/93 100/100/98
f 99/99/97 101/101/99 95/95/93
f 100/100/98 95/95/93 102/102/100
f 95/95/93 101/101/99 103/103/101
f 102/102/100 95/95/93 103/103/101
f 103/103/101 101/101/99 104/104/102
f 103/103/101 104/104/102 102/102/100
f 104/104/102 101/101/99 105/105/103
f 102/102/100 104/104/102 106/106/104
f 104/104/102 105/105/103 107/107/105
f 104/104/102 107/107/105 106/106/104
f 107/107/105 105/105/103 108/108/106
f 106/106/104 107/107/105 109/109/107
f 110/110/108 111/111/109 112/112/110
f 113/113/111 111/111/109 110/110/108
f 112/112/110 111/111/109 114/114/112
f 115/115/113 111/111/109 113/113/111
f 114/114/112 111/111/109 116/116/114
f 116/116/114 111/111/109 115/115/113
