# Blender v2.79 (sub 0) OBJ File: 'Soren.blend'
# www.blender.org
mtllib AlaD.mtl
o Cube.001
v -0.372729 -0.995310 4.276302
v -0.571711 -1.039007 4.569549
v -0.660670 -1.045804 4.180333
v -4.132913 -1.207009 3.914819
v -3.409664 -1.139760 4.032835
v -3.603833 -1.139760 4.140966
v -0.692976 -1.232986 3.839483
v -3.960175 -1.320495 3.326580
v -4.591045 -1.385533 3.300934
v -4.493594 -1.327673 3.480451
v -4.898789 -1.371068 3.434289
v -5.016757 -1.330978 3.572773
v -5.109079 -1.330978 3.680483
v -5.042933 -1.256701 3.881823
v -1.549392 -1.139760 3.854580
v -2.438664 -1.139760 3.807776
v -3.782489 -1.139760 4.268489
v -4.029992 -1.139760 4.587838
v -3.034383 -1.245094 3.209894
v -3.706089 -1.292153 3.313234
v -3.532007 -1.242744 3.415230
v -4.044804 -1.332705 3.382999
v -3.708577 -1.233366 3.678931
v -4.447433 -1.354877 3.418902
v -4.026899 -1.249897 3.788896
v -4.770563 -1.334344 3.511225
v -4.291856 -1.233751 3.903238
v -5.062918 -1.344470 3.626628
v -4.467237 -1.209222 4.067808
v -5.080481 -1.270194 3.940297
v -4.568689 -1.172953 4.248786
v -3.693465 -1.295860 3.181684
v -1.754687 -1.311041 3.290676
v -4.401271 -1.355096 3.357354
v -4.157444 -1.213798 3.797957
v -5.118029 -1.256701 3.998771
v -3.815797 -1.191782 3.810385
v -4.426268 -1.182122 4.008519
v -4.483336 -1.156892 4.116451
v -1.108428 -1.296879 3.552257
v -2.606107 -1.264861 3.136805
v -3.442142 -1.210538 3.136805
v -3.601357 -1.203369 3.547477
v -4.290789 -1.160954 3.997495
v -0.546533 -1.139760 4.061776
v -4.654042 -1.144416 4.381121
v -5.233239 -1.294130 3.842099
v -3.718713 -1.261461 3.444785
v -4.643684 -1.185907 4.138121
v -3.462658 -1.210538 3.282983
v -3.806304 -1.319130 3.213741
v -4.144820 -1.366675 3.290676
v -4.129433 -1.317930 3.439418
v -3.920887 -1.221203 3.662973
v -4.719273 -1.327124 3.459935
v -4.821854 -1.314578 3.562515
v -5.206531 -1.377691 3.526612
v -0.859652 -1.074053 4.473580
v -0.546533 -1.100750 4.061776
v -2.438664 -1.100750 3.807776
v -4.029992 -1.100750 4.587838
v -0.917542 -1.095732 3.987190
v -1.549392 -1.100750 3.854580
v -3.192225 -1.100750 3.947973
v -0.753728 -1.085237 4.993471
v -1.377778 -1.089115 4.775054
v -2.165642 -1.085237 4.665844
v -2.937904 -1.077480 4.689247
v -0.810772 -1.225272 5.020673
v -1.388018 -1.170865 4.825657
v -2.144679 -1.151111 4.716449
v -2.916942 -1.140732 4.763253
v -3.494188 -1.120577 4.739851
v -1.468101 -1.066296 4.333169
v -2.162357 -1.066296 4.255162
v -2.965822 -1.058540 4.309767
v -3.535268 -1.074053 4.379973
v -0.815436 -1.286651 4.866540
v -1.397180 -1.209085 4.717311
v -2.929106 -1.166424 4.649479
v -3.409664 -1.100750 4.032835
v -0.087421 -0.936753 3.919555
v -0.461688 -0.986658 3.887087
v -2.149569 -1.185816 4.608780
v -3.557389 -1.143154 4.642696
v -0.813695 -1.190170 4.605399
v -1.220684 -1.153590 4.354422
v -1.993963 -1.140190 4.198410
v -2.706195 -1.126791 4.232326
v -3.554089 -1.124111 4.395121
v -3.717967 -1.100750 4.665844
v -3.782489 -1.100750 4.268489
v -3.913997 -1.100750 4.418468
v -3.603832 -1.100750 4.140966
v -0.463871 -1.120057 4.394088
v -3.192225 -1.139760 3.947973
v -0.917542 -1.134742 3.987190
v -3.913997 -1.139760 4.418468
v -0.283769 -0.973064 4.665517
v -0.532820 -1.052423 4.713868
v -0.520078 -1.100750 5.102871
v -0.530864 -1.292947 4.605399
v -0.574982 -1.356460 4.954721
v -0.584554 -1.268044 5.122081
v -0.000000 -0.936753 4.493456
vt 0.901274 0.487624
vt 0.923303 0.423218
vt 0.930517 0.488978
vt 0.930010 0.544264
vt 0.918626 0.544314
vt 0.906735 0.599650
vt 0.870498 0.585086
vt 0.889383 0.542960
vt 0.872032 0.486270
vt 0.880964 0.412274
vt 0.685513 0.183960
vt 0.659015 0.192158
vt 0.646210 0.096906
vt 0.073781 0.178722
vt 0.015836 0.173648
vt 0.025170 0.145572
vt 0.023976 0.145507
vt 0.073630 0.177464
vt 0.016199 0.174426
vt 0.009859 0.122967
vt 0.013514 0.094958
vt 0.062414 0.120846
vt 0.016257 0.195152
vt 0.071438 0.232134
vt 0.012576 0.224184
vt 0.657228 0.074564
vt 0.642230 0.023085
vt 0.637889 0.047362
vt 0.627923 0.024440
vt 0.633549 0.071639
vt 0.609748 0.046423
vt 0.599409 0.053753
vt 0.589798 0.033431
vt 0.589070 0.061084
vt 0.617286 0.137334
vt 0.631748 0.117120
vt 0.126620 0.178722
vt 0.126884 0.167580
vt 0.144016 0.170853
vt 0.127148 0.156437
vt 0.077331 0.132041
vt 0.075556 0.155381
vt 0.126507 0.179475
vt 0.126954 0.168192
vt 0.144483 0.171056
vt 0.127401 0.156909
vt 0.077006 0.132954
vt 0.075319 0.155209
vt 0.141531 0.112987
vt 0.142767 0.103007
vt 0.157897 0.115485
vt 0.084113 0.078367
vt 0.073264 0.099606
vt 0.140294 0.122967
vt 0.127595 0.232134
vt 0.128681 0.222259
vt 0.145362 0.226846
vt 0.129766 0.212384
vt 0.076217 0.187305
vt 0.073828 0.209719
vt 0.178249 0.228031
vt 0.200143 0.265280
vt 0.190576 0.214072
vt 0.169799 0.263955
vt 0.220535 0.276607
vt 0.156526 0.295552
vt 0.147279 0.270135
vt 0.209095 0.338648
vt 0.266067 0.350359
vt 0.286810 0.319344
vt 0.758932 0.686295
vt 0.747279 0.686625
vt 0.752180 0.708909
vt 0.769385 0.620337
vt 0.744865 0.617849
vt 0.759941 0.553063
vt 0.744865 0.542197
vt 0.783006 0.697097
vt 0.772359 0.693464
vt 0.777567 0.713916
vt 0.796057 0.627952
vt 0.771780 0.614854
vt 0.786967 0.546618
vt 0.771780 0.536758
vt 0.782838 0.696756
vt 0.772407 0.693532
vt 0.777940 0.714282
vt 0.795947 0.628716
vt 0.772124 0.614712
vt 0.787044 0.546936
vt 0.771711 0.536313
vt 0.808313 0.711913
vt 0.814746 0.690639
vt 0.804310 0.689208
vt 0.824039 0.619323
vt 0.800360 0.616268
vt 0.815736 0.541993
vt 0.800360 0.539254
vt 0.822185 0.540955
vt 0.230660 0.538473
vt 0.239099 0.551323
vt 0.194554 0.544520
vt 0.707978 0.550862
vt 0.715775 0.512258
vt 0.678480 0.506723
vt 0.671765 0.541230
vt 0.576776 0.503181
vt 0.577323 0.527276
vt 0.455151 0.511115
vt 0.460798 0.534734
vt 0.344534 0.530074
vt 0.348713 0.551846
vt 0.274420 0.558979
vt 0.238916 0.550889
vt 0.695958 0.429796
vt 0.640640 0.399621
vt 0.548763 0.404521
vt 0.447037 0.415636
vt 0.334230 0.449239
vt 0.258034 0.482825
vt 0.613617 0.297101
vt 0.522953 0.301637
vt 0.398172 0.324476
vt 0.296021 0.377324
vt 0.194441 0.544177
vt 0.698069 0.589729
vt 0.661545 0.575867
vt 0.572214 0.553197
vt 0.460708 0.561472
vt 0.348258 0.578809
vt 0.262114 0.577680
vt 0.206766 0.503632
vt 0.221623 0.466736
vt 0.243438 0.433052
vt 0.267868 0.403053
vt 0.760351 0.345605
vt 0.673063 0.246647
vt 0.728872 0.400653
vt 0.725216 0.229165
vt 0.989557 0.362475
vt 0.978537 0.407271
vt 0.948785 0.355475
vt 0.946419 0.410305
vt 0.964873 0.514812
vt 0.959331 0.651455
vt 0.910997 0.629788
vt 0.921415 0.488336
vt 0.971133 0.790563
vt 0.921485 0.756958
vt 0.976101 0.903295
vt 0.947911 0.906423
vt 0.916906 0.350851
vt 0.919442 0.919175
vt 0.935555 0.949320
vt 0.905374 0.885982
vt 0.893716 0.848290
vt 0.953765 0.970722
vt 0.974028 0.989081
vt 0.870713 0.715411
vt 0.867446 0.555404
vt 0.875845 0.439971
vt 0.880340 0.372088
vt 0.239472 0.551415
vt 0.254459 0.558798
vt 0.262180 0.577531
vt 0.515550 0.897910
vt 0.509063 0.853009
vt 0.465165 0.848492
vt 0.947386 0.265428
vt 0.978363 0.238367
vt 0.988735 0.290936
vt 0.936248 0.171507
vt 0.877155 0.220689
vt 0.866472 0.104106
vt 0.770363 0.051941
vt 0.775415 0.183365
vt 0.668246 0.052222
vt 0.719304 0.052081
vt 0.673463 0.026149
vt 0.550021 0.158621
vt 0.590636 0.145007
vt 0.568036 0.106805
vt 0.506487 0.084598
vt 0.471248 0.181263
vt 0.420018 0.086578
vt 0.315456 0.125662
vt 0.366960 0.238634
vt 0.224275 0.216984
vt 0.219617 0.189024
vt 0.585444 0.231624
vt 0.618912 0.177433
vt 0.633308 0.235371
vt 0.592871 0.138873
vn 0.1745 -0.9843 -0.0254
vn 0.8998 0.1180 0.4201
vn -0.1842 0.9463 0.2657
vn -0.1129 0.9906 0.0767
vn 0.1895 -0.9789 -0.0763
vn -0.0061 0.9999 -0.0117
vn 0.0743 0.9540 -0.2902
vn 0.1848 -0.9825 -0.0240
vn 0.0707 0.0717 -0.9949
vn 0.6616 0.1150 -0.7409
vn 0.0242 -0.9969 0.0747
vn 0.0465 -0.9948 0.0911
vn -0.6586 0.7340 0.1656
vn 0.5340 0.0510 -0.8439
vn 0.0575 -0.9943 0.0899
vn 0.0475 -0.9966 0.0663
vn 0.5189 -0.0423 -0.8537
vn 0.0412 -0.9988 0.0264
vn 0.4611 0.1288 -0.8779
vn -0.1804 -0.6958 0.6952
vn 0.3253 0.0442 -0.9445
vn 0.2200 -0.9711 0.0920
vn 0.0965 -0.0972 -0.9906
vn 0.1704 -0.9754 0.1395
vn -0.8230 -0.2504 -0.5099
vn 0.3845 -0.3876 -0.8378
vn 0.3411 -0.0906 -0.9356
vn 0.1230 -0.9702 0.2087
vn -0.6646 -0.3030 -0.6830
vn -0.9129 0.0407 0.4061
vn -0.8213 0.1184 0.5581
vn 0.1470 -0.9739 0.1730
vn 0.4631 -0.1154 -0.8787
vn 0.0279 -0.9738 0.2255
vn -0.7609 -0.2067 -0.6150
vn -0.8269 0.1934 0.5279
vn -0.7588 0.1388 0.6364
vn 0.1192 -0.9798 0.1603
vn 0.3560 -0.0580 -0.9327
vn 0.1013 -0.9730 0.2075
vn -0.8067 -0.2949 -0.5121
vn -0.8208 0.1574 0.5491
vn -0.7031 0.2421 0.6686
vn 0.0419 -0.9792 0.1985
vn 0.1009 -0.9789 0.1775
vn -0.7778 0.0576 0.6258
vn -0.3633 0.9302 -0.0522
vn -0.6713 0.1561 0.7246
vn 0.1064 -0.9890 0.1022
vn -0.0487 0.9012 -0.4305
vn 0.3178 0.0510 -0.9467
vn 0.1212 -0.9894 0.0792
vn -0.8278 -0.1778 -0.5321
vn -0.7195 0.0516 0.6925
vn -0.6051 0.1311 0.7853
vn 0.0688 -0.9938 0.0874
vn -0.0680 0.9884 -0.1354
vn -0.0444 0.9908 -0.1278
vn -0.0843 0.9875 -0.1327
vn -0.0809 0.9913 -0.1041
vn -0.0773 0.9953 -0.0577
vn -0.2386 0.7081 0.6645
vn -0.1601 0.3452 0.9247
vn -0.4541 -0.2703 0.8489
vn -0.2715 0.7819 0.5611
vn -0.2176 0.7951 0.5660
vn -0.4131 -0.3584 0.8372
vn -0.0979 0.8725 0.4786
vn -0.2548 -0.3057 0.9174
vn -0.0106 0.8935 0.4489
vn -0.0707 -0.3100 0.9481
vn 0.0059 0.9296 0.3684
vn 0.0023 -0.2332 0.9724
vn -0.1720 -0.0641 0.9830
vn 0.0052 0.9999 -0.0103
vn 0.0043 0.9998 -0.0194
vn -0.0143 0.9996 -0.0217
vn -0.0391 0.9992 -0.0090
vn 0.0565 0.9696 -0.2380
vn 0.0033 0.9872 -0.1595
vn -0.3070 -0.9407 0.1442
vn -0.2394 -0.9705 0.0258
vn -0.0707 -0.9958 0.0587
vn -0.0253 -0.9965 0.0795
vn -0.0309 -0.9977 0.0598
vn -0.0781 -0.9859 0.1482
vn -0.2688 -0.8346 -0.4808
vn -0.1033 -0.9549 -0.2782
vn -0.0080 -0.9986 -0.0522
vn -0.0035 -0.9960 -0.0894
vn -0.0129 -0.9993 -0.0344
vn 0.0114 -0.9998 -0.0115
vn 0.5813 0.2548 -0.7727
vn -0.0074 -0.9948 0.1012
vn -0.0459 -0.9862 0.1586
vn -0.0525 -0.9820 0.1814
vn 0.7194 -0.6422 -0.2647
vn 0.4841 -0.5029 -0.7160
vn 0.3564 -0.4163 -0.8364
vn 0.2166 -0.3714 -0.9028
vn 0.1007 -0.2144 -0.9715
vn 0.3291 0.1124 -0.9376
vn -0.0505 -0.9973 0.0540
vn -0.7777 0.0636 -0.6254
vn 0.6452 0.6689 -0.3691
usemtl None
s 1
f 1/1/1 105/2/2 99/3/3
f 99/3/3 100/4/4 2/5/5
f 100/4/4 58/6/6 2/5/5
f 2/5/5 1/1/1 99/3/3
f 58/6/6 62/7/7 3/8/8
f 3/8/8 62/7/7 83/9/9
f 3/8/8 1/1/1 2/5/5
f 83/9/9 1/1/1 3/8/8
f 2/5/5 58/6/6 3/8/8
f 82/10/10 1/1/1 83/9/9
f 82/10/10 105/2/2 1/1/1
f 96/11/11 5/12/12 43/13/13
f 54/14/14 5/15/12 6/16/15
f 17/17/16 35/18/17 6/19/15
f 17/20/16 98/21/18 44/22/19
f 18/23/20 39/24/21 98/25/18
f 43/13/13 21/26/22 96/11/11
f 32/27/23 20/28/24 51/29/25
f 20/28/24 48/30/26 51/29/25
f 21/26/22 43/13/13 48/30/26
f 8/31/27 22/32/28 52/33/29
f 22/32/28 53/34/30 52/33/29
f 22/32/28 37/35/31 53/34/30
f 37/35/31 23/36/32 5/12/12
f 23/36/32 43/13/13 5/12/12
f 34/37/33 24/38/34 9/39/35
f 24/38/34 10/40/36 9/39/35
f 10/40/36 24/38/34 4/41/37
f 54/14/14 25/42/38 34/37/33
f 4/41/37 25/42/38 6/16/15
f 25/42/38 54/14/14 6/16/15
f 55/43/39 26/44/40 11/45/41
f 26/44/40 56/46/42 11/45/41
f 56/46/42 26/44/40 38/47/43
f 35/18/17 27/48/44 55/43/39
f 38/47/43 27/48/44 17/17/16
f 27/48/44 35/18/17 17/17/16
f 28/49/45 13/50/46 57/51/47
f 13/50/46 28/49/45 49/52/48
f 44/22/19 29/53/49 12/54/50
f 49/52/48 29/53/49 98/21/18
f 29/53/49 44/22/19 98/21/18
f 14/55/51 30/56/52 47/57/53
f 30/56/52 36/58/54 47/57/53
f 36/58/54 30/56/52 46/59/55
f 39/24/21 31/60/56 14/55/51
f 46/59/55 31/60/56 18/23/20
f 31/60/56 39/24/21 18/23/20
f 20/28/24 21/26/22 48/30/26
f 22/32/28 8/31/27 23/36/32
f 23/36/32 37/35/31 22/32/28
f 24/38/34 34/37/33 25/42/38
f 24/38/34 25/42/38 4/41/37
f 26/44/40 55/43/39 27/48/44
f 26/44/40 27/48/44 38/47/43
f 28/49/45 12/54/50 29/53/49
f 28/49/45 29/53/49 49/52/48
f 30/56/52 14/55/51 31/60/56
f 30/56/52 31/60/56 46/59/55
f 48/30/26 43/13/13 23/36/32
f 48/30/26 23/36/32 8/31/27
f 51/61/25 48/62/26 32/63/23
f 8/64/27 43/65/13 48/62/26
f 53/66/30 8/64/27 52/67/29
f 53/66/30 37/68/31 8/64/27
f 8/64/27 37/68/31 43/65/13
f 43/65/13 37/68/31 81/69/57
f 64/70/58 43/65/13 81/69/57
f 10/71/36 34/72/33 9/73/35
f 10/71/36 4/74/37 34/72/33
f 34/72/33 4/74/37 54/75/14
f 54/75/14 4/74/37 94/76/59
f 54/75/14 94/76/59 81/77/57
f 56/78/42 55/79/39 11/80/41
f 56/78/42 38/81/43 55/79/39
f 55/79/39 38/81/43 35/82/17
f 92/83/60 35/82/17 38/81/43
f 92/83/60 94/84/59 35/82/17
f 13/85/46 12/86/50 57/87/47
f 13/85/46 49/88/48 12/86/50
f 12/86/50 49/88/48 44/89/19
f 44/89/19 49/88/48 93/90/61
f 92/91/60 44/89/19 93/90/61
f 47/92/53 36/93/54 14/94/51
f 46/95/55 14/94/51 36/93/54
f 46/95/55 39/96/21 14/94/51
f 61/97/62 39/96/21 46/95/55
f 61/97/62 93/98/61 39/96/21
f 46/95/55 18/99/20 61/97/62
f 18/100/20 91/101/63 61/102/62
f 104/103/64 101/104/65 65/105/66
f 104/103/64 65/105/66 69/106/67
f 65/105/66 66/107/68 69/106/67
f 66/107/68 70/108/69 69/106/67
f 66/107/68 67/109/70 70/108/69
f 67/109/70 71/110/71 70/108/69
f 67/109/70 68/111/72 71/110/71
f 68/111/72 72/112/73 71/110/71
f 68/111/72 73/113/74 72/112/73
f 68/111/72 91/114/63 73/113/74
f 101/104/65 100/115/4 65/105/66
f 100/115/4 58/116/6 65/105/66
f 65/105/66 58/116/6 66/107/68
f 66/107/68 58/116/6 74/117/75
f 66/107/68 74/117/75 67/109/70
f 67/109/70 74/117/75 75/118/76
f 67/109/70 75/118/76 68/111/72
f 68/111/72 75/118/76 76/119/77
f 68/111/72 76/119/77 91/114/63
f 91/114/63 76/119/77 77/120/78
f 62/121/7 74/117/75 58/116/6
f 63/122/79 74/117/75 62/121/7
f 63/122/79 75/118/76 74/117/75
f 60/123/80 75/118/76 63/122/79
f 60/123/80 76/119/77 75/118/76
f 64/124/58 76/119/77 60/123/80
f 64/124/58 77/120/78 76/119/77
f 91/114/63 77/120/78 61/125/62
f 104/103/64 69/106/67 103/126/81
f 103/126/81 69/106/67 78/127/82
f 69/106/67 70/108/69 78/127/82
f 70/108/69 79/128/83 78/127/82
f 70/108/69 71/110/71 79/128/83
f 71/110/71 84/129/84 79/128/83
f 71/110/71 72/112/73 84/129/84
f 72/112/73 80/130/85 84/129/84
f 72/112/73 73/113/74 80/130/85
f 73/113/74 85/131/86 80/130/85
f 91/114/63 85/131/86 73/113/74
f 61/125/62 77/120/78 93/132/61
f 93/132/61 77/120/78 92/133/60
f 92/133/60 77/120/78 94/134/59
f 94/134/59 77/120/78 81/135/57
f 81/135/57 77/120/78 64/124/58
f 105/136/2 83/137/9 99/138/3
f 105/136/2 82/139/10 83/137/9
f 62/121/7 58/116/6 83/137/9
f 99/138/3 58/116/6 100/115/4
f 99/138/3 83/137/9 58/116/6
f 103/140/81 78/141/82 102/142/87
f 102/142/87 78/141/82 86/143/88
f 78/141/82 79/144/83 86/143/88
f 84/145/84 88/146/89 87/147/90
f 84/145/84 80/148/85 88/146/89
f 80/148/85 89/149/91 88/146/89
f 80/148/85 85/150/86 89/149/91
f 85/150/86 90/151/92 89/149/91
f 102/142/87 86/143/88 95/152/93
f 86/143/88 84/145/84 87/147/90
f 86/143/88 79/144/83 84/145/84
f 6/153/15 90/151/92 17/154/16
f 5/155/12 90/151/92 6/153/15
f 96/156/11 90/151/92 5/155/12
f 98/157/18 90/151/92 18/158/20
f 17/154/16 90/151/92 98/157/18
f 96/156/11 89/149/91 90/151/92
f 96/156/11 16/159/94 89/149/91
f 16/159/94 88/146/89 89/149/91
f 16/159/94 15/160/95 88/146/89
f 15/160/95 87/147/90 88/146/89
f 15/160/95 97/161/96 87/147/90
f 97/161/96 45/162/97 87/147/90
f 86/143/88 87/147/90 45/162/97
f 86/143/88 45/162/97 95/152/93
f 18/158/20 90/151/92 85/150/86
f 91/163/63 18/164/20 85/165/86
f 99/166/3 100/167/4 101/168/65
usemtl Material.TF.131074
f 97/169/96 7/170/98 45/171/97
f 97/169/96 40/172/99 7/170/98
f 15/173/95 40/172/99 97/169/96
f 15/173/95 33/174/100 40/172/99
f 41/175/101 33/174/100 15/173/95
f 41/175/101 15/173/95 16/176/94
f 50/177/102 16/176/94 96/11/11
f 50/177/102 19/178/103 16/176/94
f 19/178/103 41/175/101 16/176/94
f 41/175/101 19/178/103 42/179/104
f 19/178/103 50/177/102 42/179/104
f 21/26/22 50/177/102 96/11/11
f 20/28/24 32/27/23 50/177/102
f 20/28/24 50/177/102 21/26/22
f 62/180/7 59/181/105 7/182/98
f 62/180/7 7/182/98 40/183/99
f 63/184/79 62/180/7 40/183/99
f 63/184/79 40/183/99 33/185/100
f 41/186/101 63/184/79 33/185/100
f 41/186/101 60/187/80 63/184/79
f 50/188/102 60/187/80 41/186/101
f 50/188/102 64/70/58 60/187/80
f 42/189/104 50/188/102 41/186/101
f 64/70/58 50/188/102 43/65/13
f 50/188/102 32/63/23 48/62/26
f 43/65/13 50/188/102 48/62/26
f 62/180/7 58/190/6 59/181/105
f 95/191/93 59/181/105 58/190/6
f 95/191/93 58/190/6 100/192/4
f 45/193/97 59/181/105 95/191/93
f 7/182/98 59/181/105 45/193/97
