# Blender v2.79 (sub 0) OBJ File: 'Jack_Skellington.obj'
# www.blender.org
mtllib Jack_brazo_der.mtl
o rdmobj01.003_rdmobj01.006
v -0.634686 1.868926 -0.020612
v -0.799263 1.869178 -0.020612
v -0.606973 1.881721 -0.042775
v -0.799262 1.881760 -0.042707
v -0.606973 1.907312 -0.042775
v -0.799262 1.907273 -0.042707
v -0.634686 1.920108 -0.020612
v -0.799263 1.919856 -0.020612
v -0.606973 1.907312 0.001550
v -0.799263 1.907273 0.001483
v -0.606973 1.881721 0.001550
v -0.799263 1.881760 0.001483
v -0.634686 1.868926 -0.020612
v -0.799263 1.869178 -0.020612
v -0.799263 1.869178 -0.020612
v -1.035712 1.862386 -0.020612
v -0.799262 1.881760 -0.042707
v -1.035712 1.878451 -0.048439
v -0.799262 1.907273 -0.042707
v -1.035712 1.910582 -0.048439
v -0.799263 1.919856 -0.020612
v -1.035712 1.926648 -0.020612
v -0.799263 1.907273 0.001483
v -1.035712 1.910582 0.007214
v -0.799263 1.881760 0.001483
v -1.035712 1.878451 0.007214
v -0.799263 1.869178 -0.020612
v -1.035712 1.862386 -0.020612
v -0.598950 1.864829 -0.020612
v -0.598950 1.924205 -0.020612
v -1.027215 1.915103 -0.020612
v -1.035712 1.910582 -0.048439
v -1.027215 1.906502 -0.042424
v -1.027215 1.882532 -0.042424
v -1.035712 1.878451 -0.048439
v -1.027215 1.873931 -0.020612
v -1.035712 1.862386 -0.020612
v -1.035712 1.878451 0.007214
v -0.598950 1.864829 -0.020612
v -1.035712 1.926648 -0.020612
v -1.035712 1.910582 0.007214
v -1.027215 1.906502 0.001199
v -1.027215 1.882532 0.001199
v -1.035712 1.878451 0.007214
v -1.027215 1.882532 0.001199
vt 0.414795 0.205078
vt 0.498291 0.212158
vt 0.394531 0.256348
vt 0.498291 0.258057
vt 0.394043 0.293457
vt 0.498291 0.294434
vt 0.412842 0.330811
vt 0.498535 0.333740
vt 0.394043 0.376221
vt 0.498535 0.372803
vt 0.393555 0.417236
vt 0.498535 0.414062
vt 0.414307 0.457275
vt 0.498779 0.455566
vt 0.000488 0.712158
vt 0.139648 0.718506
vt 0.000488 0.758057
vt 0.142822 0.763428
vt 0.000488 0.794434
vt 0.140869 0.800537
vt 0.000732 0.833740
vt 0.138916 0.835937
vt 0.000732 0.872803
vt 0.140381 0.872070
vt 0.000732 0.914062
vt 0.140869 0.909912
vt 0.000977 0.955566
vt 0.141113 0.946289
vt 0.386719 0.328613
vt 0.147949 0.871094
vt 0.138916 0.835937
vt 0.146484 0.835693
vt 0.148438 0.803223
vt 0.140869 0.800537
vt 0.150391 0.765137
vt 0.142822 0.763428
vt 0.139648 0.718506
vt 0.386475 0.206543
vt 0.140381 0.872070
vt 0.140869 0.909912
vt 0.148438 0.909912
vt 0.148926 0.945557
vt 0.141113 0.946289
vt 0.147217 0.718506
vt 0.385986 0.460205
vn -0.0013 -0.8653 -0.5012
vn -0.0003 -0.8690 -0.4949
vn -0.0004 -0.0000 -1.0000
vn -0.0004 0.8658 -0.5003
vn -0.0013 0.8690 -0.4949
vn -0.0013 0.8653 0.5012
vn -0.0004 0.8690 0.4949
vn -0.0004 -0.0000 1.0000
vn -0.0004 -0.8658 0.5003
vn -0.0013 -0.8690 0.4949
vn 0.0250 -0.8687 -0.4947
vn 0.0242 -0.8658 -0.4998
vn 0.0242 -0.0000 -0.9997
vn 0.0242 0.8687 -0.4947
vn 0.0249 0.8658 -0.4999
vn 0.0250 0.8687 0.4947
vn 0.0242 0.8658 0.4999
vn 0.0242 0.0000 0.9997
vn 0.0241 -0.8687 0.4947
vn 0.0249 -0.8658 0.4998
vn -0.0926 0.8078 0.5822
vn -0.0926 0.8078 -0.5822
vn -0.5770 -0.7598 0.2996
vn -0.5778 0.0000 0.8162
vn -0.5770 0.7598 0.2996
vn -0.7620 0.5608 0.3238
vn -0.7620 0.5608 -0.3238
vn -0.0926 -0.8078 -0.5822
vn -0.7620 -0.5608 0.3238
vn -0.7620 -0.5608 -0.3238
vn -0.5770 -0.7598 -0.2996
vn -0.5778 -0.0000 -0.8162
vn -0.5770 0.7598 -0.2996
vn -0.0926 -0.8078 0.5822
usemtl default_material_texture001.png
s off
f 1/1/1 2/2/1 3/3/1
f 2/2/2 4/4/2 3/3/2
f 3/3/3 4/4/3 5/5/3
f 4/4/3 6/6/3 5/5/3
f 5/5/4 6/6/4 7/7/4
f 6/6/5 8/8/5 7/7/5
f 7/7/6 8/8/6 9/9/6
f 8/8/7 10/10/7 9/9/7
f 9/9/8 10/10/8 11/11/8
f 10/10/8 12/12/8 11/11/8
f 11/11/9 12/12/9 13/13/9
f 12/12/10 14/14/10 13/13/10
f 15/15/11 16/16/11 17/17/11
f 16/16/12 18/18/12 17/17/12
f 17/17/13 18/18/13 19/19/13
f 18/18/13 20/20/13 19/19/13
f 19/19/14 20/20/14 21/21/14
f 20/20/15 22/22/15 21/21/15
f 21/21/16 22/22/16 23/23/16
f 22/22/17 24/24/17 23/23/17
f 23/23/18 24/24/18 25/25/18
f 24/24/18 26/26/18 25/25/18
f 25/25/19 26/26/19 27/27/19
f 26/26/20 28/28/20 27/27/20
f 9/9/21 30/29/21 7/7/21
f 30/29/22 5/5/22 7/7/22
f 31/30/23 32/31/23 33/32/23
f 33/32/24 32/31/24 34/33/24
f 32/31/24 35/34/24 34/33/24
f 34/33/25 35/34/25 36/35/25
f 35/34/26 37/36/26 36/35/26
f 36/35/27 37/36/27 38/37/27
f 1/1/28 3/3/28 39/38/28
f 32/31/29 31/30/29 40/39/29
f 40/39/30 31/30/30 41/40/30
f 31/30/31 42/41/31 41/40/31
f 41/40/32 42/41/32 43/42/32
f 44/43/32 41/40/32 43/42/32
f 45/44/33 36/35/33 38/37/33
f 29/45/34 11/11/34 13/13/34
