# Blender v2.79 (sub 0) OBJ File: 'Jack_Skellington.obj'
# www.blender.org
mtllib Jack_pie_izq.mtl
o rdmobj01.012_rdmobj01.015
v 0.084729 0.000000 0.090654
v 0.087206 0.000000 0.058385
v 0.084729 0.024079 0.093003
v 0.083469 0.043484 0.036805
v 0.052731 0.050680 0.041071
v 0.052731 0.072537 0.010225
v 0.021993 0.043484 0.036805
v 0.026845 0.069353 -0.006180
v 0.021811 0.011336 -0.016161
v 0.026845 0.062821 -0.039837
v 0.022756 0.035964 -0.045628
v 0.052731 0.035964 -0.064626
v 0.052731 0.011336 -0.063342
v 0.083651 0.011336 -0.043746
v 0.083651 0.000000 -0.043746
v 0.083651 0.000000 -0.016161
v 0.024976 0.091065 -0.007253
v 0.023159 0.069807 -0.003844
v 0.052731 0.092589 0.009635
v 0.052731 0.073444 0.014898
v 0.080486 0.091065 -0.007253
v 0.082303 0.069807 -0.003844
v 0.080486 0.088017 -0.041029
v 0.082303 0.062533 -0.041328
v 0.052731 0.086493 -0.057917
v 0.052731 0.058895 -0.060070
v 0.024976 0.088017 -0.041029
v 0.023159 0.062533 -0.041328
v 0.024976 0.091065 -0.007253
v 0.023159 0.069807 -0.003844
v 0.026792 0.133340 -0.006952
v 0.052731 0.133078 0.008022
v 0.078669 0.133340 -0.006952
v 0.078669 0.133863 -0.036898
v 0.052731 0.134124 -0.051872
v 0.026792 0.133863 -0.036898
v 0.026792 0.133340 -0.006952
v 0.052731 0.000000 -0.063342
v 0.083651 0.000000 -0.043746
v 0.021811 0.000000 -0.043746
v 0.083651 0.000000 -0.016161
v 0.021811 0.000000 -0.016161
v 0.083651 0.011336 -0.016161
v 0.021811 0.011336 -0.016161
v 0.089683 0.000000 0.026115
v 0.015779 0.000000 0.026115
v 0.018256 0.000000 0.058385
v 0.015779 0.000000 0.026115
v 0.018256 0.000000 0.058385
v 0.020733 0.024079 0.093003
v 0.020733 0.000000 0.090654
v 0.052731 0.027882 0.107321
v 0.052731 0.000000 0.104973
v 0.089683 0.000000 0.026115
v 0.083651 0.011336 -0.016161
v 0.078616 0.062822 -0.039837
v 0.082706 0.035964 -0.045628
v 0.052731 0.059638 -0.056243
v 0.052731 0.000000 -0.063342
v 0.021811 0.011336 -0.043746
v 0.021811 0.000000 -0.043746
v 0.021811 0.000000 -0.016161
v 0.052731 0.000000 0.104973
v 0.020733 0.000000 0.090654
v 0.084729 0.000000 0.090654
v 0.087206 0.000000 0.058385
v 0.082303 0.069807 -0.003844
v 0.052731 0.073444 0.014898
v 0.023159 0.062533 -0.041328
v 0.078616 0.069354 -0.006180
v 0.023159 0.069807 -0.003844
vt 0.231689 0.706299
vt 0.233154 0.762451
vt 0.214844 0.717285
vt 0.201904 0.797607
vt 0.179932 0.780273
vt 0.170166 0.831543
vt 0.201904 0.797607
vt 0.185791 0.862305
vt 0.227295 0.870361
vt 0.192383 0.910889
vt 0.211670 0.914062
vt 0.210938 0.964600
vt 0.228516 0.964111
vt 0.228760 0.911133
vt 0.236816 0.910889
vt 0.235596 0.870117
vt 0.777100 0.971924
vt 0.789307 0.970459
vt 0.776855 0.923096
vt 0.788330 0.927002
vt 0.777588 0.889404
vt 0.790527 0.893311
vt 0.779297 0.852783
vt 0.794434 0.854492
vt 0.781006 0.818115
vt 0.797363 0.816162
vt 0.779541 0.782227
vt 0.794678 0.779297
vt 0.776611 0.731201
vt 0.789063 0.725098
vt 0.752686 0.971191
vt 0.752441 0.922852
vt 0.752441 0.887939
vt 0.752441 0.852539
vt 0.752441 0.817139
vt 0.752441 0.781738
vt 0.752197 0.728271
vt 0.228027 0.070068
vt 0.215332 0.030762
vt 0.215576 0.109863
vt 0.197754 0.030762
vt 0.197754 0.110107
vt 0.190430 0.030762
vt 0.190430 0.110107
vt 0.162354 0.023437
vt 0.162598 0.117920
vt 0.141846 0.114990
vt 0.233643 0.809326
vt 0.233154 0.762451
vt 0.214844 0.717285
vt 0.231689 0.706299
vt 0.197510 0.682617
vt 0.215088 0.658203
vt 0.233643 0.809326
vt 0.227295 0.870361
vt 0.192383 0.910889
vt 0.211670 0.914062
vt 0.193604 0.956543
vt 0.236572 0.964600
vt 0.228760 0.911133
vt 0.236816 0.910889
vt 0.235596 0.870117
vt 0.112061 0.071045
vt 0.121094 0.112061
vt 0.121094 0.030029
vt 0.141602 0.026611
vt 0.811768 0.885742
vt 0.831543 0.873779
vt 0.817139 0.803467
vt 0.185791 0.862305
vt 0.834229 0.832764
vn 0.9970 -0.0075 0.0765
vn 0.9959 0.0899 0.0087
vn 0.2573 0.9152 0.3102
vn 0.2618 0.7875 0.5580
vn -0.2618 0.7875 0.5580
vn -0.3815 0.8104 0.4446
vn -0.9939 0.0956 -0.0546
vn -0.9958 0.0894 -0.0173
vn -0.9879 0.1332 0.0797
vn -0.5176 0.2549 -0.8167
vn -0.5348 -0.0440 -0.8438
vn 0.5348 -0.0440 -0.8438
vn 0.5353 0.0000 -0.8446
vn 1.0000 0.0000 -0.0000
vn -0.5186 0.1784 0.8362
vn -0.5413 0.2229 0.8108
vn 0.5153 0.2272 0.8264
vn 0.5423 0.1780 0.8211
vn 0.9964 0.0839 -0.0076
vn 0.9974 0.0713 -0.0138
vn 0.5173 0.0469 -0.8545
vn 0.5283 0.0660 -0.8465
vn -0.5160 0.0666 -0.8540
vn -0.5305 0.0477 -0.8463
vn -0.9974 0.0712 -0.0064
vn -0.9965 0.0826 -0.0160
vn -0.4998 0.0153 0.8660
vn -0.5209 0.0340 0.8530
vn 0.4994 0.0345 0.8657
vn 0.5204 0.0163 0.8538
vn 0.9991 0.0429 0.0007
vn 0.9992 0.0399 -0.0036
vn 0.4983 0.0974 -0.8615
vn 0.5124 0.1081 -0.8519
vn -0.4978 0.1092 -0.8604
vn -0.5134 0.0972 -0.8526
vn -0.9992 0.0395 0.0007
vn -0.9991 0.0430 -0.0039
vn 0.0000 -1.0000 0.0000
vn 0.0000 -0.0000 1.0000
vn 0.0000 -0.9659 -0.2590
vn -0.9818 0.1639 -0.0961
vn -0.9895 0.1227 0.0760
vn -0.9959 0.0899 0.0087
vn -0.9970 -0.0075 0.0765
vn -0.3980 -0.0891 0.9131
vn -0.4072 -0.0767 0.9101
vn 0.3996 -0.0769 0.9135
vn 0.4068 -0.0887 0.9092
vn 0.9895 0.1227 0.0760
vn 0.9818 0.1639 -0.0961
vn 0.9961 0.0774 -0.0435
vn 0.9879 0.1332 0.0797
vn 0.4952 0.2545 -0.8307
vn 0.5129 0.2866 -0.8092
vn -0.4862 0.2917 -0.8237
vn -0.5353 -0.0000 -0.8446
vn -1.0000 -0.0000 0.0000
vn 0.2498 0.9156 0.3151
vn -0.2498 0.9156 0.3151
vn -0.2573 0.9152 0.3102
vn 0.9993 0.0383 -0.0000
vn 0.0000 -0.9817 0.1905
vn -0.9993 0.0383 -0.0000
vn 0.3815 0.8104 0.4447
vn 0.9897 0.1404 -0.0272
usemtl default_material_texture001.png
s off
f 1/1/1 2/2/1 3/3/1
f 2/2/2 4/4/2 3/3/2
f 3/3/3 4/4/3 5/5/3
f 4/4/4 6/6/4 5/5/4
f 5/5/5 6/6/5 7/7/5
f 6/6/6 8/8/6 7/7/6
f 7/7/7 8/8/7 9/9/7
f 8/8/8 10/10/8 9/9/8
f 9/9/9 10/10/9 11/11/9
f 10/10/10 12/12/10 11/11/10
f 11/11/11 12/12/11 13/13/11
f 12/12/12 14/14/12 13/13/12
f 13/13/13 14/14/13 15/15/13
f 14/14/14 16/16/14 15/15/14
f 17/17/15 18/18/15 19/19/15
f 18/18/16 20/20/16 19/19/16
f 19/19/17 20/20/17 21/21/17
f 20/20/18 22/22/18 21/21/18
f 21/21/19 22/22/19 23/23/19
f 22/22/20 24/24/20 23/23/20
f 23/23/21 24/24/21 25/25/21
f 24/24/22 26/26/22 25/25/22
f 25/25/23 26/26/23 27/27/23
f 26/26/24 28/28/24 27/27/24
f 27/27/25 28/28/25 29/29/25
f 28/28/26 30/30/26 29/29/26
f 31/31/27 17/17/27 32/32/27
f 17/17/28 19/19/28 32/32/28
f 32/32/29 19/19/29 33/33/29
f 19/19/30 21/21/30 33/33/30
f 33/33/31 21/21/31 34/34/31
f 21/21/32 23/23/32 34/34/32
f 34/34/33 23/23/33 35/35/33
f 23/23/34 25/25/34 35/35/34
f 35/35/35 25/25/35 36/36/35
f 25/25/36 27/27/36 36/36/36
f 36/36/37 27/27/37 37/37/37
f 27/27/38 29/29/38 37/37/38
f 38/38/39 39/39/39 40/40/39
f 39/39/39 41/41/39 40/40/39
f 40/40/39 41/41/39 42/42/39
f 41/41/40 43/43/40 42/42/40
f 42/42/40 43/43/40 44/44/40
f 43/43/41 45/45/41 44/44/41
f 44/44/41 45/45/41 46/46/41
f 45/45/39 47/47/39 46/46/39
f 9/9/42 48/48/42 7/7/42
f 48/48/43 49/49/43 7/7/43
f 7/7/44 49/49/44 50/50/44
f 49/49/45 51/51/45 50/50/45
f 50/50/46 51/51/46 52/52/46
f 51/51/47 53/53/47 52/52/47
f 52/52/48 53/53/48 3/3/48
f 53/53/49 1/1/49 3/3/49
f 2/2/50 54/54/50 4/4/50
f 54/54/51 55/55/51 4/4/51
f 4/4/52 55/55/52 56/56/52
f 55/55/53 57/57/53 56/56/53
f 56/56/54 57/57/54 58/58/54
f 57/57/55 12/12/55 58/58/55
f 58/58/56 12/12/56 10/10/56
f 15/15/13 59/59/13 13/13/13
f 13/13/57 59/59/57 60/60/57
f 59/59/57 61/61/57 60/60/57
f 60/60/58 61/61/58 9/9/58
f 61/61/58 62/62/58 9/9/58
f 63/63/39 64/64/39 65/65/39
f 64/64/39 47/47/39 65/65/39
f 65/65/39 47/47/39 66/66/39
f 47/47/39 45/45/39 66/66/39
f 3/3/59 5/5/59 52/52/59
f 52/52/60 5/5/60 50/50/60
f 5/5/61 7/7/61 50/50/61
f 12/12/12 57/57/12 14/14/12
f 57/57/62 55/55/62 14/14/62
f 14/14/14 55/55/14 16/16/14
f 67/67/63 68/68/63 24/24/63
f 24/24/63 68/68/63 26/26/63
f 68/68/63 69/69/63 26/26/63
f 9/9/64 11/11/64 60/60/64
f 60/60/11 11/11/11 13/13/11
f 6/6/65 4/4/65 70/70/65
f 70/70/66 4/4/66 56/56/66
f 68/68/63 71/71/63 69/69/63
