# Blender v2.79 (sub 0) OBJ File: 'Jack_Skellington.obj'
# www.blender.org
mtllib Jack_pierna_izq.mtl
o rdmobj01.006_rdmobj01.009
v 0.025511 0.428685 -0.001056
v 0.022726 0.785653 0.006791
v 0.025511 0.429233 -0.032483
v 0.022726 0.786258 -0.027850
v 0.052731 0.429508 -0.048196
v 0.052731 0.786560 -0.045170
v 0.079951 0.429233 -0.032483
v 0.082735 0.786258 -0.027850
v 0.079951 0.428685 -0.001056
v 0.082735 0.785653 0.006791
v 0.052731 0.428411 0.014657
v 0.052731 0.785351 0.024111
v 0.025511 0.428685 -0.001056
v 0.022726 0.785653 0.006791
v 0.026792 0.133340 -0.006952
v 0.052731 0.133078 0.008022
v 0.078669 0.133340 -0.006952
v 0.078669 0.133863 -0.036898
v 0.052731 0.134124 -0.051872
v 0.026792 0.133863 -0.036898
vt 0.636475 0.728760
vt 0.502441 0.729492
vt 0.636475 0.778320
vt 0.502197 0.770264
vt 0.636230 0.815186
vt 0.502197 0.811035
vt 0.636230 0.852295
vt 0.502197 0.851807
vt 0.636475 0.889160
vt 0.502197 0.892578
vt 0.636475 0.926758
vt 0.502441 0.933350
vt 0.636719 0.973145
vt 0.502441 0.974121
vt 0.747803 0.971191
vt 0.747559 0.922852
vt 0.747314 0.887939
vt 0.747314 0.852783
vt 0.747314 0.817139
vt 0.747314 0.781738
vn -1.0000 -0.0078 -0.0001
vn -0.5000 0.0073 -0.8660
vn 0.5000 0.0073 -0.8660
vn 1.0000 -0.0078 -0.0001
vn 0.5000 -0.0229 0.8657
vn -0.5000 -0.0229 0.8657
vn -0.5000 -0.0195 0.8658
vn 0.5000 -0.0195 0.8658
vn 1.0000 -0.0043 -0.0001
vn 0.5000 0.0108 -0.8660
vn -0.5000 0.0108 -0.8660
vn -1.0000 -0.0043 -0.0001
usemtl default_material_texture001.png
s off
f 1/1/1 2/2/1 3/3/1
f 2/2/1 4/4/1 3/3/1
f 3/3/2 4/4/2 5/5/2
f 4/4/2 6/6/2 5/5/2
f 5/5/3 6/6/3 7/7/3
f 6/6/3 8/8/3 7/7/3
f 7/7/4 8/8/4 9/9/4
f 8/8/4 10/10/4 9/9/4
f 9/9/5 10/10/5 11/11/5
f 10/10/5 12/12/5 11/11/5
f 11/11/6 12/12/6 13/13/6
f 12/12/6 14/14/6 13/13/6
f 13/13/7 15/15/7 11/11/7
f 15/15/7 16/16/7 11/11/7
f 11/11/8 16/16/8 9/9/8
f 16/16/8 17/17/8 9/9/8
f 9/9/9 17/17/9 7/7/9
f 17/17/9 18/18/9 7/7/9
f 7/7/10 18/18/10 5/5/10
f 18/18/10 19/19/10 5/5/10
f 5/5/11 19/19/11 3/3/11
f 19/19/11 20/20/11 3/3/11
f 3/3/12 20/20/12 1/1/12
