# Blender v2.79 (sub 0) OBJ File: 'Jack_Skellington.obj'
# www.blender.org
mtllib Jack_hombro_der.mtl
o rdmobj01.004_rdmobj01.007
v -0.137193 1.829521 -0.020757
v -0.211778 1.876143 -0.052438
v -0.136420 1.844707 -0.057463
v -0.128929 1.881370 -0.072667
v -0.141488 1.903747 -0.069675
v -0.115581 1.916785 -0.053831
v -0.141488 1.920039 -0.056397
v -0.108139 1.927991 -0.021247
v -0.141488 1.932571 -0.020930
v -0.115581 1.916785 0.012502
v -0.141488 1.920039 0.015173
v -0.141488 1.903747 0.028161
v -0.211778 1.912891 0.011213
v -0.211778 1.876143 0.011213
v -0.345882 1.908532 0.003661
v -0.345882 1.880503 0.003661
v -0.606973 1.881721 -0.042775
v -0.606973 1.907312 -0.042775
v -0.606973 1.907312 0.001550
v -0.606973 1.881721 0.001550
v -0.345882 1.922545 -0.020612
v -0.211778 1.931265 -0.020612
v -0.345882 1.908532 -0.044885
v -0.211778 1.912891 -0.052438
v -0.345882 1.880503 -0.044885
v -0.345882 1.866489 -0.020612
v -0.211778 1.857767 -0.020612
v -0.563214 1.868926 -0.020612
v -0.590927 1.881721 0.001550
v -0.598950 1.864829 -0.020612
v -0.590927 1.907312 0.001550
v -0.598950 1.924205 -0.020612
v -0.590927 1.907312 -0.042775
v -0.563214 1.920108 -0.020612
v -0.345882 1.922545 -0.020612
v -0.345882 1.908532 0.003661
v -0.345882 1.880503 0.003661
v -0.128929 1.881370 0.031153
v -0.136420 1.844707 0.015949
v -0.211778 1.857767 -0.020612
v -0.137193 1.829521 -0.020757
v -0.598950 1.864829 -0.020612
v -0.590927 1.881721 -0.042775
v -0.563214 1.868926 -0.020612
v -0.345882 1.880503 -0.044885
v -0.345882 1.866489 -0.020612
v -0.345882 1.866489 -0.020612
v -0.345882 1.908532 -0.044885
v -0.345882 1.866489 -0.020612
vt 0.126221 0.170898
vt 0.169189 0.241211
vt 0.122803 0.208740
vt 0.117432 0.245361
vt 0.126953 0.265381
vt 0.111328 0.289795
vt 0.127197 0.288330
vt 0.107666 0.332031
vt 0.127197 0.332031
vt 0.109863 0.370361
vt 0.125732 0.374268
vt 0.168701 0.374268
vt 0.123779 0.395264
vt 0.167480 0.418945
vt 0.247314 0.371338
vt 0.247559 0.415527
vt 0.247314 0.329102
vt 0.168945 0.332031
vt 0.247070 0.286865
vt 0.169922 0.286865
vt 0.247070 0.244385
vt 0.247070 0.191406
vt 0.169922 0.182861
vt 0.364258 0.458008
vt 0.377441 0.416992
vt 0.385986 0.460205
vt 0.393555 0.417236
vt 0.377686 0.375977
vt 0.394043 0.376221
vt 0.386719 0.328613
vt 0.394043 0.293457
vt 0.377930 0.290283
vt 0.364014 0.329346
vt 0.251709 0.329102
vt 0.251709 0.371338
vt 0.251709 0.415527
vt 0.116943 0.416260
vt 0.118408 0.452637
vt 0.167236 0.466309
vt 0.122559 0.480957
vt 0.394531 0.256348
vt 0.378174 0.255615
vt 0.386475 0.206543
vt 0.364746 0.203613
vt 0.251465 0.244385
vt 0.251221 0.191406
vt 0.251953 0.466064
vt 0.251465 0.286865
vt 0.247559 0.466064
vn -0.3795 -0.8521 -0.3605
vn -0.2028 -0.3394 -0.9185
vn -0.2370 -0.0032 -0.9715
vn 0.3696 0.3239 -0.8709
vn 0.1543 0.6242 -0.7659
vn 0.1509 0.9237 -0.3521
vn 0.1253 0.9354 -0.3305
vn 0.1312 0.9318 0.3383
vn 0.1507 0.9339 0.3242
vn -0.1068 0.6198 0.7775
vn -0.2344 0.0000 0.9721
vn -0.0562 0.0000 0.9984
vn -0.0562 0.8647 0.4992
vn -0.0562 0.8647 -0.4992
vn -0.0562 -0.0000 -0.9984
vn -0.0562 -0.8646 -0.4992
vn 0.0926 -0.8078 0.5822
vn -0.0000 -0.7953 0.6062
vn 0.0000 0.0000 1.0000
vn 0.0000 0.7953 0.6062
vn 0.0000 0.7953 -0.6062
vn 0.0926 0.8078 -0.5822
vn -0.0098 0.8712 -0.4908
vn -0.0098 0.8712 0.4908
vn -0.0086 0.8660 0.5000
vn -0.0086 0.0000 1.0000
vn -0.2339 -0.0013 0.9723
vn -0.1997 -0.3403 0.9189
vn -0.3655 -0.8061 0.4654
vn -0.3288 -0.8702 0.3669
vn -0.0000 -0.7953 -0.6062
vn 0.0926 -0.8078 -0.5822
vn -0.0086 -0.8706 -0.4919
vn -0.0097 -0.8660 -0.5000
vn -0.0161 0.9446 0.3279
vn -0.0190 0.9427 -0.3331
vn -0.1155 0.8602 -0.4966
vn -0.1073 0.6281 -0.7707
vn -0.2382 -0.0000 -0.9712
vn -0.0000 -0.0000 -1.0000
vn -0.0086 0.0000 -1.0000
vn -0.0086 -0.8706 0.4919
vn -0.0097 -0.8660 0.5000
vn -0.0086 0.8660 -0.5000
vn -0.0562 -0.8647 0.4992
vn -0.0562 -0.8646 0.4992
vn 0.0926 0.8078 0.5822
vn -0.1155 0.8602 0.4966
vn -0.3125 -0.8227 -0.4750
usemtl default_material_texture001.png
s off
f 1/1/1 2/2/1 3/3/1
f 3/3/2 2/2/2 4/4/2
f 2/2/3 5/5/3 4/4/3
f 4/4/4 5/5/4 6/6/4
f 5/5/5 7/7/5 6/6/5
f 6/6/6 7/7/6 8/8/6
f 7/7/7 9/9/7 8/8/7
f 8/8/8 9/9/8 10/10/8
f 9/9/9 11/11/9 10/10/9
f 11/11/10 13/12/10 12/13/10
f 12/13/11 13/12/11 14/14/11
f 13/12/12 15/15/12 14/14/12
f 14/14/12 15/15/12 16/16/12
f 15/15/13 13/12/13 21/17/13
f 13/12/13 22/18/13 21/17/13
f 21/17/14 22/18/14 23/19/14
f 22/18/14 24/20/14 23/19/14
f 23/19/15 24/20/15 25/21/15
f 24/20/15 2/2/15 25/21/15
f 25/21/16 2/2/16 26/22/16
f 2/2/16 27/23/16 26/22/16
f 28/24/17 29/25/17 30/26/17
f 30/26/18 29/25/18 20/27/18
f 29/25/19 31/28/19 20/27/19
f 20/27/19 31/28/19 19/29/19
f 31/28/20 32/30/20 19/29/20
f 18/31/21 32/30/21 33/32/21
f 32/30/22 34/33/22 33/32/22
f 33/32/23 34/33/23 35/34/23
f 34/33/24 31/28/24 35/34/24
f 35/34/25 31/28/25 36/35/25
f 31/28/26 37/36/26 36/35/26
f 12/13/27 14/14/27 38/37/27
f 38/37/28 14/14/28 39/38/28
f 14/14/29 40/39/29 39/38/29
f 39/38/30 40/39/30 41/40/30
f 17/41/31 43/42/31 42/43/31
f 42/43/32 43/42/32 44/44/32
f 43/42/33 45/45/33 44/44/33
f 44/44/34 45/45/34 46/46/34
f 11/11/35 9/9/35 22/18/35
f 9/9/36 7/7/36 22/18/36
f 22/18/37 7/7/37 24/20/37
f 7/7/38 5/5/38 24/20/38
f 24/20/39 5/5/39 2/2/39
f 18/31/40 33/32/40 17/41/40
f 17/41/40 33/32/40 43/42/40
f 33/32/41 45/45/41 43/42/41
f 31/28/26 29/25/26 37/36/26
f 29/25/42 28/24/42 37/36/42
f 37/36/43 28/24/43 47/47/43
f 35/34/44 48/48/44 33/32/44
f 48/48/41 45/45/41 33/32/41
f 49/49/45 40/39/45 16/16/45
f 16/16/46 40/39/46 14/14/46
f 34/33/47 32/30/47 31/28/47
f 13/12/48 11/11/48 22/18/48
f 27/23/49 2/2/49 1/1/49
