# Blender v2.79 (sub 0) OBJ File: 'Gate.blend'
# www.blender.org
mtllib Puerta1.mtl
o Cube.000_Cube.000
v -0.036080 2.525015 -0.129729
v 0.000000 2.525015 -0.129729
v 0.000000 -0.010462 -0.129729
v -0.036080 -0.010462 -0.129729
v 1.075434 -0.002850 0.011513
v 0.018291 -0.002850 0.011513
v 0.018291 -0.002850 -0.058322
v 1.075434 -0.002850 -0.058322
v 1.020650 2.504563 0.011513
v 1.020649 2.504563 -0.058322
v 0.018291 2.504563 -0.058322
v 0.018291 2.504563 0.011513
v 1.224635 2.322946 0.011513
v 1.224634 2.322946 -0.058322
v 1.148978 2.449900 -0.058322
v 1.148979 2.449900 0.011513
v 1.075433 2.289910 -0.058322
v 0.018291 2.289910 -0.058322
v 0.018291 2.289910 0.011513
v 1.075434 2.289910 0.011513
v 0.000000 2.525015 -0.070435
v 0.000000 -0.010462 -0.070435
v 0.036080 -0.010462 -0.070435
v 0.036080 2.525015 -0.070435
v 0.036080 -0.010462 -0.129729
v 0.036080 2.525015 -0.129729
v 0.036080 2.565819 -0.129729
v 0.000000 2.565819 -0.129729
v 0.000000 2.565819 -0.070435
v 0.036080 2.565819 -0.070435
v 0.048179 2.532878 -0.115021
v 0.048179 2.556061 -0.115021
v 0.048179 2.556061 -0.085144
v 0.048179 2.532878 -0.085144
v 0.000000 2.533077 -0.143213
v 0.000000 2.556748 -0.143213
v 0.018142 2.556748 -0.143213
v 0.018142 2.533077 -0.143213
v 1.590052 2.322946 -0.058324
v 1.590052 -0.002850 -0.058324
v 1.224635 -0.002850 -0.058322
v 1.224635 -0.002850 0.011513
v 1.590052 -0.002850 0.011511
v 1.590053 2.322946 0.011511
v 1.531985 2.334014 -0.109579
v 1.531985 -0.019331 -0.109579
v 1.531985 -0.019331 0.056959
v 1.531985 2.334014 0.056959
v 1.684096 -0.019331 0.056959
v 1.684096 2.334014 0.056959
v 1.684096 -0.019331 -0.109579
v 1.684096 2.334014 -0.109579
v 1.224634 2.322946 -0.058322
v 1.590052 2.322946 -0.058324
v 1.590052 -0.002850 -0.058324
v 1.224635 -0.002850 -0.058322
v 0.000000 2.525015 -0.129729
v 0.000000 2.533077 -0.143213
v 0.036080 2.525015 -0.129729
v 0.048179 2.532878 -0.115021
v 0.048179 2.532878 -0.085144
v 0.036080 2.525015 -0.070435
v 0.018142 2.533077 -0.143213
v 1.590052 -0.002850 0.011511
v 1.590052 -0.002850 -0.058324
v 1.590052 2.322946 -0.058324
v 1.590053 2.322946 0.011511
vt 0.499831 0.809572
vt 0.492584 0.809572
vt 0.492584 0.300243
vt 0.499831 0.300243
vt 0.948573 0.321447
vt 0.948574 0.591667
vt 0.965743 0.591667
vt 0.965743 0.321447
vt 0.512744 0.804918
vt 0.512741 0.813572
vt 0.640977 0.813628
vt 0.640981 0.804975
vt 0.833695 0.779249
vt 0.827222 0.775575
vt 0.812523 0.790450
vt 0.817683 0.794650
vt 0.778315 0.758633
vt 0.507381 0.758633
vt 0.507381 0.811980
vt 0.764274 0.811979
vt 0.925188 0.535748
vt 0.918563 0.535748
vt 0.917513 0.604409
vt 0.924138 0.604409
vt 0.210132 0.767583
vt 0.482415 0.767583
vt 0.485748 0.159252
vt 0.213466 0.159252
vt 0.493100 0.764918
vt 0.493100 0.266447
vt 0.500193 0.266447
vt 0.500193 0.764918
vt 0.500193 0.809016
vt 0.500193 0.310544
vt 0.499831 0.300243
vt 0.499831 0.809572
vt 0.492584 0.256146
vt 0.499831 0.256146
vt 0.499258 0.824470
vt 0.492112 0.824567
vt 0.492541 0.823882
vt 0.498640 0.823812
vt 0.498900 0.816938
vt 0.492974 0.816885
vt 0.501493 0.818041
vt 0.501375 0.822384
vt 0.500897 0.822201
vt 0.501014 0.818182
vt 0.498621 0.824234
vt 0.500759 0.822127
vt 0.500878 0.817741
vt 0.498908 0.816127
vt 0.491728 0.817566
vt 0.491409 0.822557
vt 0.495197 0.822526
vt 0.495439 0.817588
vt 0.491404 0.824331
vt 0.227576 0.817415
vt 0.480748 0.817415
vt 0.926238 0.176495
vt 0.919612 0.176495
vt 0.781648 0.159356
vt 0.510714 0.159357
vt 0.831554 0.157690
vt 0.838220 0.772099
vt 0.184523 0.801923
vt 0.155037 0.771426
vt 0.156704 0.160918
vt 0.812163 0.797970
vt 0.886453 0.762604
vt 0.886152 0.771528
vt 0.923047 0.772602
vt 0.921735 0.763709
vt 0.948573 0.283309
vt 0.965743 0.283309
vt 0.069252 0.160918
vt 0.067585 0.771426
vt 0.965743 0.189903
vt 0.948574 0.189903
vt 0.924311 0.763755
vt 0.842162 0.763756
vt 0.842162 0.771630
vt 0.924311 0.771629
vt 0.929420 0.155433
vt 0.928421 0.776974
vt 0.963689 0.776974
vt 0.964687 0.155433
vt 0.930102 0.154110
vt 0.929097 0.776610
vt 0.963689 0.776974
vt 0.964725 0.154527
vt 0.929678 0.155764
vt 0.929348 0.776997
vt 0.964198 0.776163
vt 0.964529 0.154930
vt 0.931245 0.153290
vt 0.929162 0.776504
vt 0.962952 0.777338
vt 0.965035 0.154124
vt 0.066392 0.390451
vt 0.032548 0.390451
vt 0.032548 0.428684
vt 0.066392 0.428684
vt 0.967876 0.157937
vt 0.930454 0.157937
vt 0.930454 0.200506
vt 0.967876 0.200506
vt 0.838220 0.772099
vt 0.926873 0.772100
vt 0.925207 0.157690
vt 0.831554 0.157690
vt 0.499542 0.816442
vt 0.501493 0.818041
vt 0.501014 0.818182
vt 0.498900 0.816938
vt 0.491929 0.816054
vt 0.491728 0.817566
vt 0.495439 0.817588
vt 0.498908 0.816127
vt 0.967558 0.000000
vt 0.950323 0.000000
vt 0.950323 0.591233
vt 0.967558 0.591233
vn 0.0000 0.0000 -1.0000
vn 0.0000 -1.0000 -0.0000
vn 0.0000 1.0000 0.0000
vn 0.8590 0.5119 -0.0000
vn -1.0000 0.0000 0.0000
vn 0.0000 -0.0000 1.0000
vn 1.0000 0.0000 0.0000
vn 0.7723 -0.0000 0.6353
vn 0.6278 0.7784 0.0000
vn 0.7723 0.0000 -0.6353
vn 0.6009 0.0000 -0.7993
vn 0.0000 0.8297 -0.5582
vn 0.3919 0.9200 -0.0000
vn 0.5449 -0.8385 0.0000
vn 0.0000 -0.8583 -0.5132
usemtl Material.003
s 1
f 1/1/1 2/2/1 3/3/1 4/4/1
f 5/5/2 6/6/2 7/7/2 8/8/2
f 9/9/3 10/10/3 11/11/3 12/12/3
f 13/13/4 14/14/4 15/15/4 16/16/4
f 17/17/1 18/18/1 11/19/1 10/20/1
f 18/21/5 19/22/5 12/23/5 11/24/5
f 20/25/6 19/26/6 6/27/6 5/28/6
f 21/29/6 22/30/6 23/31/6 24/32/6
f 24/33/7 23/34/7 25/35/7 26/36/7
f 26/36/1 25/35/1 3/3/1 2/2/1
f 3/37/2 25/38/2 23/31/2 22/30/2
f 27/39/3 28/40/3 29/41/3 30/42/3
f 24/43/6 30/42/6 29/41/6 21/44/6
f 31/45/7 32/46/7 33/47/7 34/48/7
f 24/43/8 34/48/8 33/47/8 30/42/8
f 30/42/9 33/47/9 32/46/9 27/39/9
f 27/49/10 32/50/10 31/51/10 26/52/10
f 35/53/1 36/54/1 37/55/1 38/56/1
f 26/52/11 38/56/11 37/55/11 27/49/11
f 27/49/12 37/55/12 36/54/12 28/57/12
f 9/58/6 12/59/6 19/26/6 20/25/6
f 7/60/5 6/61/5 19/22/5 18/21/5
f 8/62/1 7/63/1 18/18/1 17/17/1
f 41/64/1 8/62/1 17/17/1 14/65/1
f 16/66/6 9/58/6 20/25/6 13/67/6
f 13/67/6 20/25/6 5/28/6 42/68/6
f 14/65/1 17/17/1 10/20/1 15/69/1
f 16/70/13 15/71/13 10/72/13 9/73/13
f 42/74/2 5/5/2 8/8/2 41/75/2
f 42/68/6 43/76/6 44/77/6 13/67/6
f 41/75/2 40/78/2 43/79/2 42/74/2
f 13/80/3 44/81/3 39/82/3 14/83/3
f 45/84/5 46/85/5 47/86/5 48/87/5
f 48/88/6 47/89/6 49/90/6 50/91/6
f 50/92/7 49/93/7 51/94/7 52/95/7
f 52/96/1 51/97/1 46/98/1 45/99/1
f 46/100/2 51/101/2 49/102/2 47/103/2
f 52/104/3 45/105/3 48/106/3 50/107/3
f 53/108/1 54/109/1 55/110/1 56/111/1
usemtl Material.002
f 59/112/14 60/113/14 61/114/14 62/115/14
f 57/116/15 58/117/15 63/118/15 59/119/15
f 64/120/7 65/121/7 66/122/7 67/123/7
